<?xml version="1.0" encoding="utf-8"?><!-- Generator: Adobe Illustrator 19.2.1, SVG Export Plug-In . SVG Version: 6.00 Build 0)  -->
<svg style="enable-background:new 0 0 340 340;" id="Layer_1" version="1.1"  viewBox="0 0 340 340" x="0px"
	 xmlns="http://www.w3.org/2000/svg" y="0px" xml:space="preserve">
<title>Logo</title>
<desc>Created with Sketch.</desc>
<g id="Page-1">
	<g id="Logo" transform="translate(20.000000, 20.000000)">
		<path d="M170.2,193.5c-1.4,1.9-3.6,3.1-6,3.1c-0.2,0-0.5,0-0.7,0c-0.4,0-0.6-0.1-0.8-0.1
			c-0.3-0.1-0.5-0.1-0.7-0.2c-0.4-0.1-0.5-0.2-0.7-0.3c-0.4-0.2-0.5-0.3-0.7-0.3c-0.4-0.2-0.5-0.3-0.6-0.4c-0.2-0.1-0.3-0.2-0.5-0.4
			c-0.3-0.2-0.4-0.3-0.5-0.4c-0.3-0.3-0.5-0.5-0.7-0.8c-0.4-0.5-0.7-0.9-0.9-1.4l-8.8-14.2l-8.8,14.2c-1.4,2.5-3.9,4.3-6.8,4.3
			c-2.9,0-5.4-1.7-6.8-4.3l-38.6-56.3c-1.3-1.5-2.1-3.6-2.1-5.8c0-4.7,3.5-8.6,7.8-8.6c2.8,0,5.2,1.6,6.6,4l32.6,48.2l9.2-14.9
			c1.3-2.7,3.9-4.5,6.8-4.5c2.7,0,5.1,1.5,6.5,3.8l9.5,15.5l51.2-73.3c1.4-2.4,3.8-3.9,6.5-3.9c4.3,0,7.8,3.8,7.8,8.6
			c0,2.1-0.7,4-1.8,5.5L170.2,193.5L170.2,193.5z" id="Clock-Hands"/>
	</g>
</g>
</svg>
